HIERARCHY
ROOT hip
{
	OFFSET 0.000000 0.000000 0.000000
	CHANNELS 6 Xposition Yposition Zposition Zrotation Yrotation Xrotation 
	JOINT lhipjoint
	{
		OFFSET 0.000000 0.000000 0.000000
		CHANNELS 3 Zrotation Yrotation Xrotation
		JOINT lfemur
		{
			OFFSET 1.363060 -1.794630 0.839290
			CHANNELS 3 Zrotation Yrotation Xrotation
			JOINT ltibia
			{
				OFFSET 2.448110 -6.726130 0.000000
				CHANNELS 3 Zrotation Yrotation Xrotation
				JOINT lfoot
				{
					OFFSET 2.562200 -7.039590 0.000000
					CHANNELS 3 Zrotation Yrotation Xrotation
					JOINT ltoes
					{
						OFFSET 0.157640 -0.433110 2.322550
						CHANNELS 3 Zrotation Yrotation Xrotation
						End Site
						{
							OFFSET 0.000000 0.000000 0.000000
						}
					}
				}
			}
		}
	}
	JOINT rhipjoint
	{
		OFFSET 0.000000 0.000000 0.000000
		CHANNELS 3 Zrotation Yrotation Xrotation
		JOINT rfemur
		{
			OFFSET -1.305520 -1.794630 0.839290
			CHANNELS 3 Zrotation Yrotation Xrotation
			JOINT rtibia
			{
				OFFSET -2.542530 -6.985550 0.000000
				CHANNELS 3 Zrotation Yrotation Xrotation
				JOINT rfoot
				{
					OFFSET -2.568260 -7.056230 0.000000
					CHANNELS 3 Zrotation Yrotation Xrotation
					JOINT rtoes
					{
						OFFSET -0.164730 -0.452590 2.363150
						CHANNELS 3 Zrotation Yrotation Xrotation
						End Site
						{
							OFFSET 0.000000 0.000000 0.000000
						}
					}
				}
			}
		}
	}
	JOINT lowerback
	{
		OFFSET 0.000000 0.000000 0.000000
		CHANNELS 3 Zrotation Yrotation Xrotation
		JOINT upperback
		{
			OFFSET 0.028270 2.035590 -0.193380
			CHANNELS 3 Zrotation Yrotation Xrotation
			JOINT thorax
			{
				OFFSET 0.056720 2.048850 -0.042750
				CHANNELS 3 Zrotation Yrotation Xrotation
				JOINT lowerneck
				{
					OFFSET 0.000000 0.000000 0.000000
					CHANNELS 3 Zrotation Yrotation Xrotation
					JOINT upperneck
					{
						OFFSET -0.054170 1.746240 0.172020
						CHANNELS 3 Zrotation Yrotation Xrotation
						JOINT head
						{
							OFFSET 0.104070 1.761360 -0.123970
							CHANNELS 3 Zrotation Yrotation Xrotation
							End Site
							{
								OFFSET 0.000000 0.000000 0.000000
							}
						}
					}
				}
				JOINT lclavicle
				{
					OFFSET 0.000000 0.000000 0.000000
					CHANNELS 3 Zrotation Yrotation Xrotation
					JOINT lhumerus
					{
						OFFSET 3.362410 1.200890 -0.311210
						CHANNELS 3 Zrotation Yrotation Xrotation
						JOINT lradius
						{
							OFFSET 4.983000 -0.000000 -0.000000
							CHANNELS 3 Zrotation Yrotation Xrotation
							JOINT lwrist
							{
								OFFSET 3.483560 -0.000000 -0.000000
								CHANNELS 3 Zrotation Yrotation Xrotation
								JOINT lhand
								{
									OFFSET 0.000000 0.000000 0.000000
									CHANNELS 3 Zrotation Yrotation Xrotation
									JOINT lfingers
									{
										OFFSET 0.715260 -0.000000 -0.000000
										CHANNELS 3 Zrotation Yrotation Xrotation
										End Site
										{
											OFFSET 0.000000 0.000000 0.000000
										}
									}
								}
								JOINT lthumb
								{
									OFFSET 0.000000 0.000000 0.000000
									CHANNELS 3 Zrotation Yrotation Xrotation
									End Site
									{
										OFFSET 0.000000 0.000000 0.000000
									}
								}
							}
						}
					}
				}
				JOINT rclavicle
				{
					OFFSET 0.000000 0.000000 0.000000
					CHANNELS 3 Zrotation Yrotation Xrotation
					JOINT rhumerus
					{
						OFFSET -3.136600 1.374050 -0.404650
						CHANNELS 3 Zrotation Yrotation Xrotation
						JOINT rradius
						{
							OFFSET -5.241900 -0.000000 -0.000000
							CHANNELS 3 Zrotation Yrotation Xrotation
							JOINT rwrist
							{
								OFFSET -3.444170 -0.000000 -0.000000
								CHANNELS 3 Zrotation Yrotation Xrotation
								JOINT rhand
								{
									OFFSET 0.000000 0.000000 0.000000
									CHANNELS 3 Zrotation Yrotation Xrotation
									JOINT rfingers
									{
										OFFSET -0.622530 -0.000000 -0.000000
										CHANNELS 3 Zrotation Yrotation Xrotation
										End Site
										{
											OFFSET 0.000000 0.000000 0.000000
										}
									}
								}
								JOINT rthumb
								{
									OFFSET 0.000000 0.000000 0.000000
									CHANNELS 3 Zrotation Yrotation Xrotation
									End Site
									{
										OFFSET 0.000000 0.000000 0.000000
									}
								}
							}
						}
					}
				}
			}
		}
	}
}
MOTION
Frames: 7
Frame Time: 0.008333
1.778053 16.826260 13.999909 -2.050914 12.145214 -8.084653 4.571498 2.905785 0.677418 -19.924661 -18.072600 -8.619508 3.694195 10.437300 34.745557 0.602930 -0.285643 0.914161 0.351600 -3.809900 -10.542400 -6.304504 -2.854224 -2.840716 28.727564 1.449137 12.314730 -3.246226 -7.202496 23.878536 -1.231051 4.758669 -14.935125 -0.377900 3.947900 -10.930000 5.137532 -0.922945 13.234494 0.625790 -0.768624 -3.539215 -2.238421 0.011571 -3.208339 -6.317933 -0.317932 -6.637425 4.594659 -0.541977 17.397740 0.808800 0.219600 2.209800 6.110653 -10.260910 2.485446 -94.763640 -0.200190 -23.215980 4.339309 -17.884556 -1.518977 0.454863 1.147228 40.353791 10.680186 -3.709937 -0.956400 -7.125000 0.000000 0.000000 -11.635100 24.987800 5.744400 -2.284268 11.376253 4.628508 83.055790 -2.972545 24.885294 -18.393863 34.669786 -4.805712 -1.923976 -3.510183 12.467768 -20.627700 13.976191 -6.355500 7.125000 0.000000 0.000000 5.545600 -10.777500 4.432100 
1.827194 16.830613 14.064527 -1.968469 11.958746 -8.075354 4.564129 2.918340 0.680096 -20.180276 -17.800141 -8.303868 3.699963 10.425326 34.750733 0.620100 -0.346341 0.597092 0.334900 -3.718800 -10.286900 -6.273517 -2.874415 -2.854457 27.916608 0.588521 11.683767 -3.322904 -7.449467 24.582872 -1.222603 5.947751 -13.801914 -0.354900 3.827200 -10.591000 4.977621 -0.920826 13.256374 0.625646 -0.784291 -3.544644 -2.205776 0.005019 -3.259294 -6.320326 -0.288753 -6.586242 4.633385 -0.521206 17.338565 0.816300 0.230700 2.171800 6.129664 -10.291712 2.497535 -94.821587 -0.172610 -22.783986 4.386061 -18.085862 -1.527036 0.437492 1.164349 40.107000 10.499341 -3.800389 -0.960000 -7.125000 0.000000 0.000000 -11.746800 24.897300 5.827100 -2.338176 11.401184 4.602186 83.325300 -3.053595 24.460954 -17.952648 34.403687 -4.723007 -1.973556 -3.452053 13.169793 -20.737217 14.136076 -6.432500 7.125000 0.000000 0.000000 5.491900 -10.627700 4.405700 
1.876044 16.833031 14.128564 -1.868836 11.768197 -8.061117 4.556869 2.931513 0.681240 -20.454151 -17.512066 -7.986214 3.699045 10.404442 34.723821 0.632948 -0.388951 0.288257 0.319300 -3.632400 -10.044600 -6.242535 -2.894822 -2.864960 27.063680 -0.292317 10.971286 -3.412309 -7.720932 25.365904 -1.202428 7.166755 -12.605915 -0.337700 3.734500 -10.330800 4.798606 -0.911008 13.270928 0.625149 -0.792189 -3.549210 -2.166943 0.002419 -3.303600 -6.313321 -0.269877 -6.531007 4.651571 -0.508281 17.275696 0.808800 0.238500 2.128300 6.146678 -10.319687 2.513796 -94.843732 -0.132916 -22.201163 4.415113 -18.304703 -1.536466 0.426004 1.189135 39.696304 10.338536 -3.842330 -0.957600 -7.125000 0.000000 0.000000 -11.848800 24.843600 5.894900 -2.385473 11.428587 4.577633 83.587799 -3.158741 24.000093 -17.528126 34.139865 -4.640412 -2.019847 -3.389256 13.835921 -20.784023 14.313062 -6.490500 7.125000 0.000000 0.000000 5.481300 -10.475800 4.414100 
1.924411 16.838448 14.191537 -1.774447 11.586694 -8.052710 4.550860 2.943123 0.679521 -20.729116 -17.252876 -7.643119 3.691598 10.373995 34.664338 0.639241 -0.405816 0.008128 0.303700 -3.543000 -9.794500 -6.214995 -2.912370 -2.867945 26.269557 -1.042353 10.267020 -3.517634 -8.009332 26.214347 -1.173923 8.244288 -11.521020 -0.322100 3.648100 -10.088700 4.639004 -0.911345 13.296753 0.624766 -0.811033 -3.553618 -2.146807 -0.005544 -3.347864 -6.317927 -0.248551 -6.507101 4.675578 -0.488392 17.248775 0.812300 0.249000 2.115500 6.164760 -10.348667 2.528083 -94.892539 -0.093628 -21.680698 4.476011 -18.541861 -1.548646 0.412150 1.210421 39.388694 10.187188 -3.917488 -0.961200 -7.125000 0.000000 0.000000 -11.940100 24.761500 5.965600 -2.450614 11.457890 4.543168 83.901870 -3.229745 23.350118 -16.993530 33.808095 -4.539570 -2.077241 -3.305363 14.750479 -20.831547 14.530652 -6.557800 7.125000 0.000000 0.000000 5.473000 -10.294400 4.427700 
1.972390 16.847251 14.254317 -1.666238 11.398035 -8.025523 4.547223 2.953357 0.675093 -21.027764 -17.007816 -7.279582 3.678679 10.334690 34.575695 0.639389 -0.396388 -0.293002 0.290600 -3.466900 -9.581400 -6.191445 -2.926848 -2.863106 25.535504 -1.624236 9.584403 -3.636208 -8.303528 27.094931 -1.142002 9.157271 -10.596485 -0.319900 3.635400 -10.053100 4.485175 -0.914570 13.303833 0.623541 -0.834448 -3.558655 -2.141065 -0.015772 -3.383970 -6.337823 -0.221135 -6.509876 4.698349 -0.456513 17.221399 0.823200 0.264400 2.111700 6.178723 -10.376445 2.541923 -94.913993 -0.065311 -21.093344 4.520380 -18.768908 -1.558982 0.401958 1.230629 39.018749 10.051551 -3.988482 -0.965200 -7.125000 0.000000 0.000000 -12.023600 24.681200 6.032100 -2.524132 11.485168 4.502474 84.227945 -3.291368 22.604110 -16.413304 33.442357 -4.426547 -2.134789 -3.207568 15.838711 -20.829903 14.737784 -6.601900 7.125000 0.000000 0.000000 5.492700 -10.141600 4.460800 
2.019596 16.854506 14.315839 -1.574991 11.228751 -8.012127 4.542796 2.961637 0.670054 -21.304680 -16.780714 -6.908554 3.661966 10.289864 34.468236 0.636841 -0.376577 -0.572517 0.278900 -3.396800 -9.385600 -6.169054 -2.940621 -2.855724 24.843961 -2.162486 8.933416 -3.754473 -8.585468 27.945739 -1.107654 9.974912 -9.762272 -0.321700 3.645600 -10.081800 4.379496 -0.923798 13.327505 0.622791 -0.860400 -3.564240 -2.150420 -0.026416 -3.427061 -6.424170 -0.188387 -6.519294 4.739603 -0.421284 17.202716 0.871500 0.277300 2.116900 6.176085 -10.418021 2.560915 -94.928094 0.013952 -20.277510 4.598662 -19.086502 -1.576439 0.393424 1.260623 38.481474 9.918369 -4.052452 -0.969700 -7.125000 0.000000 0.000000 -12.104000 24.597600 6.098200 -2.609332 11.510617 4.456486 84.560727 -3.358308 21.756064 -15.810296 33.060415 -4.314942 -2.192429 -3.103403 17.010435 -20.840764 14.940485 -6.648400 7.125000 0.000000 0.000000 5.503400 -9.994100 4.486100 
2.065351 16.859536 14.376104 -1.470979 11.050113 -8.003959 4.538607 2.968463 0.664614 -21.601217 -16.547723 -6.524616 3.641720 10.238221 34.340405 0.626735 -0.327296 -0.842165 0.278200 -3.392800 -9.374200 -6.146793 -2.950123 -2.848000 24.184472 -2.619231 8.352645 -3.866250 -8.841193 28.721139 -1.075072 10.656020 -9.079385 -0.339200 3.742500 -10.353200 4.272545 -0.922469 13.354728 0.619763 -0.872634 -3.570584 -2.175874 -0.030667 -3.477896 -6.532487 -0.149610 -6.520284 4.794545 -0.382647 17.185403 0.936000 0.290500 2.120500 6.160663 -10.471730 2.588861 -94.911952 0.161496 -19.244210 4.713828 -19.490158 -1.604117 0.392580 1.303144 37.803417 9.848022 -4.065263 -0.973600 -7.125000 0.000000 0.000000 -12.142300 24.547200 6.132900 -2.702903 11.539524 4.405469 84.925888 -3.439637 20.759766 -15.168765 32.650316 -4.201020 -2.250987 -2.988309 18.302944 -20.854779 15.150685 -6.696500 7.125000 0.000000 0.000000 5.512300 -9.844500 4.510100 
